# Blender v2.79 (sub 0) OBJ File: ''
# www.blender.org
mtllib position.mtl
g Cylinder.001_Cylinder.002
v 0.000000 -0.000613 -0.500358
v 0.000000 0.000613 -0.500358
v 0.097615 -0.000613 -0.490744
v 0.097615 0.000613 -0.490744
v 0.191479 -0.000613 -0.462271
v 0.191479 0.000613 -0.462271
v 0.277984 -0.000613 -0.416033
v 0.277984 0.000613 -0.416033
v 0.353807 -0.000613 -0.353807
v 0.353807 0.000613 -0.353807
v 0.416033 -0.000613 -0.277984
v 0.416033 0.000613 -0.277984
v 0.462271 -0.000613 -0.191479
v 0.462271 0.000613 -0.191479
v 0.490744 -0.000613 -0.097615
v 0.490744 0.000613 -0.097615
v 0.500358 -0.000613 -0.000000
v 0.500358 0.000613 -0.000000
v 0.490744 -0.000613 0.097615
v 0.490744 0.000613 0.097615
v 0.462271 -0.000613 0.191479
v 0.462271 0.000613 0.191479
v 0.416033 -0.000613 0.277984
v 0.416033 0.000613 0.277984
v 0.353807 -0.000613 0.353807
v 0.353807 0.000613 0.353807
v 0.277984 -0.000613 0.416033
v 0.277984 0.000613 0.416033
v 0.191479 -0.000613 0.462271
v 0.191479 0.000613 0.462271
v 0.097615 -0.000613 0.490744
v 0.097615 0.000613 0.490744
v -0.000000 -0.000613 0.500358
v -0.000000 0.000613 0.500358
v -0.097615 -0.000613 0.490744
v -0.097615 0.000613 0.490744
v -0.191479 -0.000613 0.462271
v -0.191479 0.000613 0.462271
v -0.277984 -0.000613 0.416033
v -0.277984 0.000613 0.416033
v -0.353807 -0.000613 0.353807
v -0.353807 0.000613 0.353807
v -0.416033 -0.000613 0.277984
v -0.416033 0.000613 0.277984
v -0.462271 -0.000613 0.191478
v -0.462271 0.000613 0.191478
v -0.490744 -0.000613 0.097615
v -0.490744 0.000613 0.097615
v -0.500358 -0.000613 -0.000000
v -0.500358 0.000613 -0.000000
v -0.490744 -0.000613 -0.097616
v -0.490744 0.000613 -0.097616
v -0.462271 -0.000613 -0.191479
v -0.462271 0.000613 -0.191479
v -0.416032 -0.000613 -0.277985
v -0.416032 0.000613 -0.277985
v -0.353806 -0.000613 -0.353807
v -0.353806 0.000613 -0.353807
v -0.277984 -0.000613 -0.416033
v -0.277984 0.000613 -0.416033
v -0.191478 -0.000613 -0.462271
v -0.191478 0.000613 -0.462271
v -0.097614 -0.000613 -0.490744
v -0.097614 0.000613 -0.490744
v 0.000000 -0.000613 -0.450323
v 0.000000 0.000613 -0.450323
v 0.087854 -0.000613 -0.441670
v 0.087854 0.000613 -0.441670
v 0.172332 -0.000613 -0.416045
v 0.172332 0.000613 -0.416045
v 0.250186 -0.000613 -0.374431
v 0.250186 0.000613 -0.374431
v 0.318427 -0.000613 -0.318427
v 0.318427 0.000613 -0.318427
v 0.374431 -0.000613 -0.250186
v 0.374431 0.000613 -0.250186
v 0.416045 -0.000613 -0.172332
v 0.416045 0.000613 -0.172332
v 0.441670 -0.000613 -0.087854
v 0.441670 0.000613 -0.087854
v 0.450323 -0.000613 -0.000000
v 0.450323 0.000613 -0.000000
v 0.441670 -0.000613 0.087854
v 0.441670 0.000613 0.087854
v 0.416045 -0.000613 0.172331
v 0.416045 0.000613 0.172331
v 0.374431 -0.000613 0.250186
v 0.374431 0.000613 0.250186
v 0.318427 -0.000613 0.318427
v 0.318427 0.000613 0.318427
v 0.250186 -0.000613 0.374431
v 0.250186 0.000613 0.374431
v 0.172331 -0.000613 0.416045
v 0.172331 0.000613 0.416045
v 0.087854 -0.000613 0.441670
v 0.087854 0.000613 0.441670
v -0.000000 -0.000613 0.450323
v -0.000000 0.000613 0.450323
v -0.087855 -0.000613 0.441670
v -0.087855 0.000613 0.441670
v -0.172332 -0.000613 0.416045
v -0.172332 0.000613 0.416045
v -0.250187 -0.000613 0.374431
v -0.250187 0.000613 0.374431
v -0.318428 -0.000613 0.318427
v -0.318428 0.000613 0.318427
v -0.374431 -0.000613 0.250186
v -0.374431 0.000613 0.250186
v -0.416045 -0.000613 0.172331
v -0.416045 0.000613 0.172331
v -0.441670 -0.000613 0.087854
v -0.441670 0.000613 0.087854
v -0.450323 -0.000613 -0.000000
v -0.450323 0.000613 -0.000000
v -0.441670 -0.000613 -0.087855
v -0.441670 0.000613 -0.087855
v -0.416045 -0.000613 -0.172332
v -0.416045 0.000613 -0.172332
v -0.374430 -0.000613 -0.250187
v -0.374430 0.000613 -0.250187
v -0.318427 -0.000613 -0.318428
v -0.318427 0.000613 -0.318428
v -0.250186 -0.000613 -0.374431
v -0.250186 0.000613 -0.374431
v -0.172331 -0.000613 -0.416045
v -0.172331 0.000613 -0.416045
v -0.087854 -0.000613 -0.441670
v -0.087854 0.000613 -0.441670
vn 0.0980 0.0000 -0.9952
vn 0.2903 0.0000 -0.9569
vn 0.4714 0.0000 -0.8819
vn 0.6344 0.0000 -0.7730
vn 0.7730 0.0000 -0.6344
vn 0.8819 0.0000 -0.4714
vn 0.9569 0.0000 -0.2903
vn 0.9952 0.0000 -0.0980
vn 0.9952 0.0000 0.0980
vn 0.9569 0.0000 0.2903
vn 0.8819 0.0000 0.4714
vn 0.7730 0.0000 0.6344
vn 0.6344 0.0000 0.7730
vn 0.4714 0.0000 0.8819
vn 0.2903 0.0000 0.9569
vn 0.0980 0.0000 0.9952
vn -0.0980 0.0000 0.9952
vn -0.2903 0.0000 0.9569
vn -0.4714 0.0000 0.8819
vn -0.6344 0.0000 0.7730
vn -0.7730 0.0000 0.6344
vn -0.8819 0.0000 0.4714
vn -0.9569 0.0000 0.2903
vn -0.9952 0.0000 0.0980
vn -0.9952 0.0000 -0.0980
vn -0.9569 0.0000 -0.2903
vn -0.8819 0.0000 -0.4714
vn -0.7730 0.0000 -0.6344
vn -0.6344 0.0000 -0.7730
vn -0.4714 0.0000 -0.8819
vn -0.2903 0.0000 -0.9569
vn -0.0980 0.0000 -0.9952
vn 0.0000 -1.0000 0.0000
vn 0.0000 1.0000 0.0000
usemtl None
s off
f 1//1 2//1 4//1 3//1
f 3//2 4//2 6//2 5//2
f 5//3 6//3 8//3 7//3
f 7//4 8//4 10//4 9//4
f 9//5 10//5 12//5 11//5
f 11//6 12//6 14//6 13//6
f 13//7 14//7 16//7 15//7
f 15//8 16//8 18//8 17//8
f 17//9 18//9 20//9 19//9
f 19//10 20//10 22//10 21//10
f 21//11 22//11 24//11 23//11
f 23//12 24//12 26//12 25//12
f 25//13 26//13 28//13 27//13
f 27//14 28//14 30//14 29//14
f 29//15 30//15 32//15 31//15
f 31//16 32//16 34//16 33//16
f 33//17 34//17 36//17 35//17
f 35//18 36//18 38//18 37//18
f 37//19 38//19 40//19 39//19
f 39//20 40//20 42//20 41//20
f 41//21 42//21 44//21 43//21
f 43//22 44//22 46//22 45//22
f 45//23 46//23 48//23 47//23
f 47//24 48//24 50//24 49//24
f 49//25 50//25 52//25 51//25
f 51//26 52//26 54//26 53//26
f 53//27 54//27 56//27 55//27
f 55//28 56//28 58//28 57//28
f 57//29 58//29 60//29 59//29
f 59//30 60//30 62//30 61//30
f 61//31 62//31 64//31 63//31
f 63//32 64//32 2//32 1//32
f 65//17 67//17 68//17 66//17
f 67//18 69//18 70//18 68//18
f 69//19 71//19 72//19 70//19
f 71//20 73//20 74//20 72//20
f 73//21 75//21 76//21 74//21
f 75//22 77//22 78//22 76//22
f 77//23 79//23 80//23 78//23
f 79//24 81//24 82//24 80//24
f 81//25 83//25 84//25 82//25
f 83//26 85//26 86//26 84//26
f 85//27 87//27 88//27 86//27
f 87//28 89//28 90//28 88//28
f 89//29 91//29 92//29 90//29
f 91//30 93//30 94//30 92//30
f 93//31 95//31 96//31 94//31
f 95//32 97//32 98//32 96//32
f 97//1 99//1 100//1 98//1
f 99//2 101//2 102//2 100//2
f 101//3 103//3 104//3 102//3
f 103//4 105//4 106//4 104//4
f 105//5 107//5 108//5 106//5
f 107//6 109//6 110//6 108//6
f 109//7 111//7 112//7 110//7
f 111//8 113//8 114//8 112//8
f 113//9 115//9 116//9 114//9
f 115//10 117//10 118//10 116//10
f 117//11 119//11 120//11 118//11
f 119//12 121//12 122//12 120//12
f 121//13 123//13 124//13 122//13
f 123//14 125//14 126//14 124//14
f 125//15 127//15 128//15 126//15
f 127//16 65//16 66//16 128//16
f 1//33 3//33 67//33 65//33
f 4//34 2//34 66//34 68//34
f 3//33 5//33 69//33 67//33
f 6//34 4//34 68//34 70//34
f 5//33 7//33 71//33 69//33
f 8//34 6//34 70//34 72//34
f 7//33 9//33 73//33 71//33
f 10//34 8//34 72//34 74//34
f 9//33 11//33 75//33 73//33
f 12//34 10//34 74//34 76//34
f 11//33 13//33 77//33 75//33
f 14//34 12//34 76//34 78//34
f 13//33 15//33 79//33 77//33
f 16//34 14//34 78//34 80//34
f 15//33 17//33 81//33 79//33
f 18//34 16//34 80//34 82//34
f 17//33 19//33 83//33 81//33
f 20//34 18//34 82//34 84//34
f 19//33 21//33 85//33 83//33
f 22//34 20//34 84//34 86//34
f 21//33 23//33 87//33 85//33
f 24//34 22//34 86//34 88//34
f 23//33 25//33 89//33 87//33
f 26//34 24//34 88//34 90//34
f 25//33 27//33 91//33 89//33
f 28//34 26//34 90//34 92//34
f 27//33 29//33 93//33 91//33
f 30//34 28//34 92//34 94//34
f 29//33 31//33 95//33 93//33
f 32//34 30//34 94//34 96//34
f 31//33 33//33 97//33 95//33
f 34//34 32//34 96//34 98//34
f 33//33 35//33 99//33 97//33
f 36//34 34//34 98//34 100//34
f 35//33 37//33 101//33 99//33
f 38//34 36//34 100//34 102//34
f 37//33 39//33 103//33 101//33
f 40//34 38//34 102//34 104//34
f 39//33 41//33 105//33 103//33
f 42//34 40//34 104//34 106//34
f 41//33 43//33 107//33 105//33
f 44//34 42//34 106//34 108//34
f 43//33 45//33 109//33 107//33
f 46//34 44//34 108//34 110//34
f 45//33 47//33 111//33 109//33
f 48//34 46//34 110//34 112//34
f 47//33 49//33 113//33 111//33
f 50//34 48//34 112//34 114//34
f 49//33 51//33 115//33 113//33
f 52//34 50//34 114//34 116//34
f 51//33 53//33 117//33 115//33
f 54//34 52//34 116//34 118//34
f 53//33 55//33 119//33 117//33
f 56//34 54//34 118//34 120//34
f 55//33 57//33 121//33 119//33
f 58//34 56//34 120//34 122//34
f 57//33 59//33 123//33 121//33
f 60//34 58//34 122//34 124//34
f 59//33 61//33 125//33 123//33
f 62//34 60//34 124//34 126//34
f 61//33 63//33 127//33 125//33
f 64//34 62//34 126//34 128//34
f 63//33 1//33 65//33 127//33
f 2//34 64//34 128//34 66//34
g Cylinder
v 0.000000 0.485143 -0.078454
v 0.000000 0.861928 -0.078454
v 0.014908 0.485143 -0.076947
v 0.014908 0.861928 -0.076947
v 0.029244 0.485143 -0.072482
v 0.029244 0.861928 -0.072482
v 0.042455 0.485143 -0.065232
v 0.042455 0.861928 -0.065232
v 0.054036 0.485143 -0.055475
v 0.054036 0.861928 -0.055475
v 0.063539 0.485143 -0.043587
v 0.063539 0.861928 -0.043587
v 0.070601 0.485143 -0.030023
v 0.070601 0.861928 -0.030023
v 0.074949 0.485143 -0.015306
v 0.074949 0.861928 -0.015306
v 0.076418 0.485143 -0.000000
v 0.076418 0.861928 -0.000000
v 0.074949 0.485143 0.015306
v 0.074949 0.861928 0.015306
v 0.070601 0.485143 0.030023
v 0.070601 0.861928 0.030023
v 0.063539 0.485143 0.043587
v 0.063539 0.861928 0.043587
v 0.054036 0.485143 0.055475
v 0.054036 0.861928 0.055475
v 0.042455 0.485143 0.065232
v 0.042455 0.861928 0.065232
v 0.029244 0.485143 0.072482
v 0.029244 0.861928 0.072482
v 0.014908 0.485143 0.076947
v 0.014908 0.861928 0.076947
v -0.000000 0.485143 0.078454
v -0.000000 0.861928 0.078454
v -0.014908 0.485143 0.076947
v -0.014908 0.861928 0.076947
v -0.029244 0.485143 0.072482
v -0.029244 0.861928 0.072482
v -0.042456 0.485143 0.065232
v -0.042456 0.861928 0.065232
v -0.054036 0.485143 0.055475
v -0.054036 0.861928 0.055475
v -0.063539 0.485143 0.043587
v -0.063539 0.861928 0.043587
v -0.070601 0.485143 0.030023
v -0.070601 0.861928 0.030023
v -0.074949 0.485143 0.015306
v -0.074949 0.861928 0.015306
v -0.076418 0.485143 -0.000000
v -0.076418 0.861928 -0.000000
v -0.074949 0.485143 -0.015306
v -0.074949 0.861928 -0.015306
v -0.070601 0.485143 -0.030023
v -0.070601 0.861928 -0.030023
v -0.063539 0.485143 -0.043587
v -0.063539 0.861928 -0.043587
v -0.054035 0.485143 -0.055475
v -0.054035 0.861928 -0.055475
v -0.042455 0.485143 -0.065232
v -0.042455 0.861928 -0.065232
v -0.029244 0.485143 -0.072482
v -0.029244 0.861928 -0.072482
v -0.014908 0.485143 -0.076947
v -0.014908 0.861928 -0.076947
vn 0.1006 0.0000 -0.9949
vn 0.2973 0.0000 -0.9548
vn 0.4811 0.0000 -0.8767
vn 0.6443 0.0000 -0.7647
vn 0.7811 0.0000 -0.6244
vn 0.8870 0.0000 -0.4618
vn 0.9590 0.0000 -0.2834
vn 0.9954 0.0000 -0.0955
vn 0.9954 0.0000 0.0955
vn 0.9590 0.0000 0.2834
vn 0.8870 0.0000 0.4618
vn 0.7811 0.0000 0.6244
vn 0.6443 0.0000 0.7647
vn 0.4811 0.0000 0.8767
vn 0.2973 0.0000 0.9548
vn 0.1006 0.0000 0.9949
vn -0.1006 0.0000 0.9949
vn -0.2973 0.0000 0.9548
vn -0.4811 0.0000 0.8767
vn -0.6443 0.0000 0.7647
vn -0.7811 0.0000 0.6244
vn -0.8870 0.0000 0.4618
vn -0.9590 0.0000 0.2834
vn -0.9954 0.0000 0.0955
vn -0.9954 0.0000 -0.0955
vn -0.9590 0.0000 -0.2834
vn -0.8870 0.0000 -0.4618
vn -0.7811 0.0000 -0.6244
vn -0.6443 0.0000 -0.7647
vn -0.4811 0.0000 -0.8767
vn 0.0000 1.0000 0.0000
vn -0.2973 0.0000 -0.9548
vn -0.1006 0.0000 -0.9949
vn 0.0000 -1.0000 0.0000
usemtl None
s off
f 129//35 130//35 132//35 131//35
f 131//36 132//36 134//36 133//36
f 133//37 134//37 136//37 135//37
f 135//38 136//38 138//38 137//38
f 137//39 138//39 140//39 139//39
f 139//40 140//40 142//40 141//40
f 141//41 142//41 144//41 143//41
f 143//42 144//42 146//42 145//42
f 145//43 146//43 148//43 147//43
f 147//44 148//44 150//44 149//44
f 149//45 150//45 152//45 151//45
f 151//46 152//46 154//46 153//46
f 153//47 154//47 156//47 155//47
f 155//48 156//48 158//48 157//48
f 157//49 158//49 160//49 159//49
f 159//50 160//50 162//50 161//50
f 161//51 162//51 164//51 163//51
f 163//52 164//52 166//52 165//52
f 165//53 166//53 168//53 167//53
f 167//54 168//54 170//54 169//54
f 169//55 170//55 172//55 171//55
f 171//56 172//56 174//56 173//56
f 173//57 174//57 176//57 175//57
f 175//58 176//58 178//58 177//58
f 177//59 178//59 180//59 179//59
f 179//60 180//60 182//60 181//60
f 181//61 182//61 184//61 183//61
f 183//62 184//62 186//62 185//62
f 185//63 186//63 188//63 187//63
f 187//64 188//64 190//64 189//64
f 132//65 130//65 192//65 190//65 188//65 186//65 184//65 182//65 180//65 178//65 176//65 174//65 172//65 170//65 168//65 166//65 164//65 162//65 160//65 158//65 156//65 154//65 152//65 150//65 148//65 146//65 144//65 142//65 140//65 138//65 136//65 134//65
f 189//66 190//66 192//66 191//66
f 191//67 192//67 130//67 129//67
f 129//68 131//68 133//68 135//68 137//68 139//68 141//68 143//68 145//68 147//68 149//68 151//68 153//68 155//68 157//68 159//68 161//68 163//68 165//68 167//68 169//68 171//68 173//68 175//68 177//68 179//68 181//68 183//68 185//68 187//68 189//68 191//68
g Cone
v 0.000000 0.489363 0.151733
v 0.029602 0.489363 0.148817
v 0.058066 0.489363 0.140183
v 0.084298 0.489363 0.126161
v 0.107291 0.489363 0.107291
v 0.126161 0.489363 0.084298
v 0.140183 0.489363 0.058066
v 0.148817 0.489363 0.029602
v 0.151733 0.489363 0.000000
v 0.148817 0.489363 -0.029602
v 0.140183 0.489363 -0.058066
v 0.126161 0.489363 -0.084298
v 0.107291 0.489363 -0.107291
v 0.084298 0.489363 -0.126161
v 0.058066 0.489363 -0.140183
v 0.029602 0.489363 -0.148817
v -0.000000 0.489363 -0.151733
v -0.029602 0.489363 -0.148817
v -0.058066 0.489363 -0.140183
v -0.084298 0.489363 -0.126161
v -0.107291 0.489363 -0.107291
v -0.126161 0.489363 -0.084298
v -0.140183 0.489363 -0.058065
v 0.000000 0.185898 -0.000000
v -0.148817 0.489363 -0.029601
v -0.151733 0.489363 0.000000
v -0.148817 0.489363 0.029602
v -0.140183 0.489363 0.058066
v -0.126161 0.489363 0.084298
v -0.107291 0.489363 0.107291
v -0.084298 0.489363 0.126161
v -0.058065 0.489363 0.140183
v -0.029601 0.489363 0.148817
vn 0.0878 -0.4455 0.8910
vn 0.2599 -0.4455 0.8567
vn 0.4220 -0.4455 0.7896
vn 0.5680 -0.4455 0.6921
vn 0.6921 -0.4455 0.5680
vn 0.7896 -0.4455 0.4220
vn 0.8567 -0.4455 0.2599
vn 0.8910 -0.4455 0.0878
vn 0.8910 -0.4455 -0.0878
vn 0.8567 -0.4455 -0.2599
vn 0.7896 -0.4455 -0.4220
vn 0.6921 -0.4455 -0.5680
vn 0.5680 -0.4455 -0.6921
vn 0.4220 -0.4455 -0.7896
vn 0.2599 -0.4455 -0.8567
vn 0.0878 -0.4455 -0.8910
vn -0.0878 -0.4455 -0.8910
vn -0.2599 -0.4455 -0.8567
vn -0.4220 -0.4455 -0.7896
vn -0.5680 -0.4455 -0.6921
vn -0.6921 -0.4455 -0.5680
vn -0.7896 -0.4455 -0.4220
vn -0.8567 -0.4455 -0.2599
vn -0.8910 -0.4455 -0.0878
vn -0.8910 -0.4455 0.0878
vn -0.8567 -0.4455 0.2599
vn -0.7896 -0.4455 0.4220
vn -0.6921 -0.4455 0.5680
vn -0.5680 -0.4455 0.6921
vn -0.4220 -0.4455 0.7896
vn -0.2599 -0.4455 0.8567
vn -0.0878 -0.4455 0.8910
vn 0.0000 1.0000 0.0000
usemtl None
s off
f 193//69 216//69 194//69
f 194//70 216//70 195//70
f 195//71 216//71 196//71
f 196//72 216//72 197//72
f 197//73 216//73 198//73
f 198//74 216//74 199//74
f 199//75 216//75 200//75
f 200//76 216//76 201//76
f 201//77 216//77 202//77
f 202//78 216//78 203//78
f 203//79 216//79 204//79
f 204//80 216//80 205//80
f 205//81 216//81 206//81
f 206//82 216//82 207//82
f 207//83 216//83 208//83
f 208//84 216//84 209//84
f 209//85 216//85 210//85
f 210//86 216//86 211//86
f 211//87 216//87 212//87
f 212//88 216//88 213//88
f 213//89 216//89 214//89
f 214//90 216//90 215//90
f 215//91 216//91 217//91
f 217//92 216//92 218//92
f 218//93 216//93 219//93
f 219//94 216//94 220//94
f 220//95 216//95 221//95
f 221//96 216//96 222//96
f 222//97 216//97 223//97
f 223//98 216//98 224//98
f 224//99 216//99 225//99
f 225//100 216//100 193//100
f 193//101 194//101 195//101 196//101 197//101 198//101 199//101 200//101 201//101 202//101 203//101 204//101 205//101 206//101 207//101 208//101 209//101 210//101 211//101 212//101 213//101 214//101 215//101 217//101 218//101 219//101 220//101 221//101 222//101 223//101 224//101 225//101
